<?xml version="1.0" encoding="utf-8"?>
<!-- Generator: Adobe Illustrator 25.4.1, SVG Export Plug-In . SVG Version: 6.00 Build 0)  -->
<svg version="1.1" id="Capa_1" xmlns="http://www.w3.org/2000/svg" xmlns:xlink="http://www.w3.org/1999/xlink" x="0px" y="0px"
	 viewBox="0 0 70 70" style="enable-background:new 0 0 70 70;" xml:space="preserve">
<g>
	<path d="M7,18.9h56c3.9,0,7-1.8,7-4s-3.1-4-7-4H7c-3.9,0-7,1.8-7,4S3.1,18.9,7,18.9z"/>
	<path d="M63,30.3H7c-3.9,0-7,1.8-7,4c0,2.2,3.1,4,7,4h56c3.9,0,7-1.8,7-4C70,32,66.9,30.3,63,30.3z"/>
	<path d="M63,50.9H7c-3.9,0-7,1.8-7,4s3.1,4,7,4h56c3.9,0,7-1.8,7-4S66.9,50.9,63,50.9z"/>
</g>
</svg>
